<svg width="23" height="16" viewBox="0 0 23 16" fill="none" xmlns="http://www.w3.org/2000/svg">
<path fill-rule="evenodd" clip-rule="evenodd" d="M10.0695 4.50892C10.0828 5.24509 9.8827 5.96881 9.49445 6.58945C10.9943 7.68331 11.6286 9.64278 11.0585 11.4338C10.4847 13.2367 8.82461 14.4472 6.96561 14.4185H0.67934C0.426419 14.419 0.216597 14.2191 0.200012 13.9618V1.28851C0.200012 1.01863 0.414615 0.799844 0.67934 0.799844H6.32912C8.35899 0.790555 10.0224 2.44003 10.0695 4.50892ZM2.68309 3.33131H6.37627C6.83332 3.29379 7.27231 3.52115 7.51212 3.91958C7.75194 4.31801 7.75194 4.81999 7.51212 5.21842C7.27231 5.61686 6.83332 5.84421 6.37627 5.8067H2.68309V3.33131ZM2.68309 11.9191H7.04419C8.01629 11.9191 8.80434 11.1156 8.80434 10.1246C8.80434 9.13355 8.01629 8.33015 7.04419 8.33015H2.68309V11.9191ZM17.2201 4.2046C20.0876 4.25452 22.3746 6.73051 22.3306 9.7374V9.8368C22.3306 10.125 22.1078 10.3586 21.833 10.3586H14.6609C14.889 11.6605 15.958 12.6154 17.2201 12.6446C17.8597 12.6595 18.4779 12.4026 18.9341 11.9323C18.9738 11.8903 19.0278 11.8664 19.0842 11.866H21.6039C21.6788 11.8637 21.7495 11.9027 21.7899 11.9689C21.8304 12.0351 21.8347 12.1187 21.8014 12.1891C21.7052 12.3946 21.597 12.5938 21.4775 12.7854C20.5582 14.3199 18.9561 15.2567 17.228 15.2702C14.3605 15.2203 12.0735 12.7443 12.1174 9.7374C12.0734 6.73369 14.3557 4.25904 17.2201 4.2046ZM19.408 8.12229C18.9467 7.31428 18.1181 6.81559 17.2201 6.80535C16.322 6.81559 15.4935 7.31428 15.0321 8.12229H19.408ZM15.0363 3.3534H19.4117C19.5088 3.3534 19.6018 3.31753 19.6704 3.25368C19.7391 3.18983 19.7776 3.10323 19.7776 3.01292V1.99148C19.7776 1.80344 19.6138 1.651 19.4117 1.651H15.0363C14.8342 1.651 14.6704 1.80344 14.6704 1.99148V3.01292C14.6704 3.20097 14.8342 3.3534 15.0363 3.3534Z" fill="white"/>
</svg>
