<svg width="164" height="164" viewBox="0 0 164 164" fill="none" xmlns="http://www.w3.org/2000/svg">
<path d="M97.4585 8.37788C96.8959 8.0193 96.4801 7.636 96.211 7.22178L96.9081 6.35006C97.165 6.73337 97.5319 7.08576 98.0089 7.40106C98.4859 7.71637 98.9934 7.94511 99.5438 8.08113C100.265 8.26042 100.84 8.2666 101.256 8.10586C101.672 7.94511 101.935 7.66072 102.033 7.24651C102.106 6.94357 102.069 6.67154 101.917 6.43661C101.764 6.20168 101.562 5.99148 101.299 5.82456C101.036 5.65763 100.657 5.44125 100.168 5.18159C99.5499 4.86011 99.0546 4.56953 98.6938 4.30987C98.3269 4.05021 98.0456 3.71637 97.8377 3.31451C97.6297 2.91266 97.593 2.43043 97.7337 1.86783C97.8499 1.39797 98.07 1.0023 98.4125 0.686999C98.7488 0.371698 99.1952 0.161497 99.7456 0.0563965C100.302 -0.048704 100.944 -0.00542734 101.684 0.173862C102.198 0.303692 102.693 0.495346 103.158 0.748823C103.623 1.00848 104.008 1.30524 104.301 1.64527L103.647 2.55408C103.335 2.22641 102.993 1.95439 102.601 1.72564C102.216 1.50307 101.825 1.34233 101.421 1.24341C100.712 1.07031 100.149 1.07031 99.7334 1.24341C99.3175 1.41652 99.0607 1.70709 98.9567 2.12131C98.8834 2.42425 98.9262 2.69627 99.0791 2.9312C99.2319 3.17232 99.446 3.37633 99.715 3.55562C99.9841 3.73491 100.357 3.94511 100.84 4.18623C101.458 4.50771 101.947 4.79828 102.308 5.05794C102.669 5.3176 102.95 5.64527 103.158 6.04094C103.366 6.4428 103.403 6.91884 103.268 7.46907C103.158 7.93275 102.932 8.32224 102.589 8.64372C102.247 8.96521 101.794 9.17541 101.238 9.27433C100.675 9.37324 100.027 9.32997 99.287 9.1445C98.6265 8.98375 98.0211 8.72409 97.4585 8.36552V8.37788Z" fill="white"/>
<path d="M122.738 8.72446L118.641 16.811L117.497 16.2175L119.325 12.6132L114.733 10.233L112.904 13.8373L111.761 13.2438L115.858 5.15723L117.002 5.75074L115.241 9.23142L119.833 11.6116L121.594 8.13095L122.738 8.72446Z" fill="white"/>
<path d="M128.806 23.4448C128.525 22.6534 128.458 21.8559 128.617 21.046C128.776 20.2361 129.136 19.5066 129.705 18.8513C130.274 18.1959 130.953 17.7446 131.729 17.485C132.506 17.2315 133.301 17.2006 134.108 17.3799C134.915 17.5653 135.661 17.961 136.34 18.5731C137.013 19.1728 137.49 19.8714 137.771 20.6565C138.052 21.4479 138.114 22.2392 137.961 23.0429C137.808 23.8466 137.441 24.5823 136.86 25.2377C136.279 25.8992 135.606 26.3567 134.836 26.6102C134.065 26.8636 133.276 26.8945 132.469 26.7091C131.662 26.5236 130.922 26.1279 130.243 25.5282C129.564 24.9224 129.081 24.2238 128.8 23.4324L128.806 23.4448ZM132.634 25.5221C133.227 25.6457 133.815 25.6148 134.389 25.417C134.964 25.2191 135.472 24.8791 135.9 24.3845C136.328 23.8899 136.609 23.3459 136.725 22.74C136.842 22.1341 136.811 21.5468 136.615 20.9656C136.42 20.3845 136.077 19.8775 135.582 19.4324C135.086 18.9873 134.542 18.7029 133.943 18.5731C133.344 18.4432 132.757 18.4741 132.182 18.672C131.607 18.8698 131.099 19.2098 130.671 19.7044C130.243 20.199 129.962 20.7431 129.846 21.349C129.723 21.9486 129.766 22.5422 129.968 23.1295C130.17 23.7168 130.518 24.2299 131.014 24.6689C131.509 25.1078 132.053 25.3922 132.647 25.5221H132.634Z" fill="white"/>
<path d="M154.588 41.6146L145.409 43.9948L144.675 42.8511L149.372 36.8294L142.009 38.6841L141.263 37.5157L147.183 30.0288L147.898 31.154L143.079 37.2251L150.589 35.3642L151.231 36.3657L146.406 42.4987L153.922 40.5698L154.582 41.6084L154.588 41.6146Z" fill="white"/>
<path d="M152.399 61.0335L154.441 58.3194C154.35 58.0907 154.288 57.9176 154.246 57.7815L153.573 55.6424L150.968 56.4771L150.583 55.2406L159.15 52.4956L160.208 55.8712C160.563 56.9902 160.569 57.9608 160.245 58.7769C159.915 59.593 159.285 60.1432 158.355 60.4461C157.695 60.6563 157.077 60.6749 156.508 60.4956C155.94 60.3163 155.456 59.9516 155.053 59.4137L152.821 62.3874L152.399 61.0397V61.0335ZM156.343 59.0489C156.808 59.3519 157.346 59.4075 157.97 59.2097C158.588 59.0118 159.003 58.6533 159.199 58.1339C159.401 57.6146 159.376 56.9655 159.132 56.1803L158.471 54.0783L154.613 55.3148L155.273 57.4168C155.518 58.2019 155.872 58.746 156.337 59.0489H156.343Z" fill="white"/>
<path d="M156.16 78.5358L155.047 78.6224L154.546 72.0443L163.511 71.3457L164 77.7383L162.887 77.8248L162.496 72.7244L159.744 72.9408L160.092 77.4848L159.004 77.5714L158.655 73.0273L155.763 73.2561L156.166 78.5358H156.16Z" fill="white"/>
<path d="M154.813 95.2841L153.706 95.1233L154.648 88.5947L163.546 89.9054L162.629 96.2547L161.522 96.0939L162.256 91.0306L159.522 90.6287L158.874 95.1357L157.791 94.9749L158.446 90.468L155.572 90.0414L154.813 95.2841Z" fill="white"/>
<path d="M159.498 108.019L159.039 109.231L151.683 106.393L149.946 110.993L148.9 110.591L151.089 104.78L159.486 108.019H159.498Z" fill="white"/>
<path d="M137.668 128.916C138.242 128.588 138.781 128.397 139.27 128.354L139.698 129.386C139.239 129.435 138.762 129.596 138.261 129.862C137.759 130.134 137.319 130.48 136.94 130.907C136.438 131.463 136.163 131.97 136.102 132.415C136.041 132.86 136.169 133.231 136.481 133.51C136.707 133.72 136.964 133.813 137.239 133.794C137.515 133.775 137.796 133.689 138.065 133.534C138.34 133.38 138.707 133.145 139.16 132.83C139.735 132.434 140.218 132.131 140.621 131.933C141.019 131.729 141.447 131.636 141.893 131.643C142.34 131.649 142.78 131.847 143.208 132.236C143.563 132.564 143.801 132.947 143.917 133.398C144.034 133.85 144.009 134.344 143.832 134.888C143.66 135.432 143.318 135.989 142.804 136.558C142.45 136.953 142.046 137.299 141.6 137.596C141.153 137.887 140.713 138.085 140.273 138.19L139.796 137.176C140.224 137.058 140.633 136.879 141.013 136.638C141.392 136.397 141.716 136.131 141.997 135.822C142.486 135.278 142.749 134.777 142.798 134.326C142.847 133.874 142.713 133.503 142.401 133.219C142.168 133.009 141.918 132.916 141.636 132.941C141.355 132.966 141.074 133.052 140.792 133.207C140.511 133.361 140.15 133.596 139.71 133.905C139.135 134.301 138.652 134.598 138.255 134.796C137.857 134.993 137.435 135.092 136.989 135.086C136.542 135.086 136.108 134.888 135.692 134.505C135.344 134.183 135.111 133.8 134.995 133.343C134.879 132.885 134.91 132.384 135.093 131.84C135.276 131.296 135.619 130.734 136.133 130.165C136.585 129.658 137.099 129.238 137.68 128.91L137.668 128.916Z" fill="white"/>
<path d="M125.406 151.247L120.287 143.772L121.345 143.03L123.626 146.363L127.87 143.395L125.589 140.063L126.647 139.321L131.766 146.795L130.708 147.537L128.506 144.322L124.262 147.29L126.464 150.505L125.406 151.247Z" fill="white"/>
<path d="M109.708 149.701C110.528 149.825 111.256 150.146 111.885 150.666C112.521 151.185 112.986 151.859 113.286 152.675C113.585 153.497 113.665 154.313 113.518 155.123C113.371 155.933 113.029 156.656 112.479 157.287C111.934 157.918 111.237 158.394 110.387 158.715C109.543 159.03 108.712 159.123 107.892 159.006C107.073 158.888 106.345 158.561 105.721 158.047C105.091 157.528 104.627 156.854 104.327 156.026C104.021 155.197 103.948 154.381 104.088 153.578C104.235 152.774 104.578 152.051 105.122 151.42C105.666 150.789 106.363 150.313 107.207 149.998C108.057 149.683 108.895 149.584 109.714 149.707L109.708 149.701ZM106.082 152.125C105.691 152.595 105.446 153.132 105.342 153.738C105.238 154.344 105.299 154.956 105.526 155.574C105.752 156.193 106.1 156.694 106.565 157.089C107.03 157.485 107.568 157.726 108.161 157.831C108.754 157.936 109.366 157.868 109.984 157.633C110.601 157.404 111.109 157.052 111.506 156.582C111.904 156.112 112.154 155.574 112.258 154.969C112.362 154.363 112.301 153.751 112.075 153.132C111.849 152.514 111.506 152.007 111.035 151.618C110.571 151.228 110.032 150.981 109.427 150.882C108.822 150.783 108.21 150.851 107.592 151.086C106.975 151.315 106.467 151.667 106.082 152.137V152.125Z" fill="white"/>
<path d="M81.6509 164.001L83.9442 154.703L85.2895 154.597L88.2982 161.639L90.1817 154.208L91.5515 154.097L95.2513 162.919L93.9304 163.024L90.94 155.852L88.9892 163.42L87.809 163.512L84.7636 156.304L82.8679 163.902L81.6509 164.001Z" fill="white"/>
<path d="M65.7878 152.873L67.1882 155.976C67.4266 156.001 67.6162 156.032 67.7508 156.057L69.9339 156.471L70.4354 153.751L71.6951 153.992L70.044 162.925L66.595 162.276C65.4514 162.06 64.6014 161.615 64.0449 160.934C63.4884 160.261 63.305 159.432 63.4823 158.461C63.6107 157.775 63.8859 157.219 64.314 156.798C64.7421 156.378 65.2863 156.112 65.9468 156.013L64.4057 152.619L65.7816 152.879L65.7878 152.873ZM65.6593 157.324C65.1762 157.59 64.8705 158.053 64.7543 158.696C64.632 159.346 64.7543 159.877 65.109 160.304C65.4637 160.73 66.0446 161.015 66.8457 161.169L68.9922 161.577L69.7382 157.559L67.5918 157.151C66.7907 156.996 66.1486 157.058 65.6655 157.33L65.6593 157.324Z" fill="white"/>
<path d="M48.7519 147.939L49.2044 146.907L55.1729 149.571L51.5404 157.887L45.7371 155.296L46.1896 154.264L50.8188 156.329L51.9379 153.775L47.8162 151.933L48.2565 150.925L52.3782 152.768L53.5524 150.084L48.758 147.945L48.7519 147.939Z" fill="white"/>
<path d="M34.815 138.777L35.4816 137.874L40.7101 141.818L35.3348 149.107L30.2469 145.274L30.9135 144.372L34.9679 147.432L36.619 145.194L33.0049 142.468L33.6593 141.583L37.2734 144.31L39.0101 141.961L34.8089 138.795L34.815 138.777Z" fill="white"/>
<path d="M21.526 136.928L20.6882 135.945L26.6383 130.74L23.4523 127.018L24.2962 126.276L28.32 130.981L21.526 136.928Z" fill="white"/>
<path d="M13.6244 107.606C13.6366 108.273 13.551 108.842 13.3553 109.293L12.2546 109.182C12.4319 108.749 12.5175 108.248 12.5175 107.674C12.5175 107.099 12.4258 106.542 12.2362 106.004C11.9855 105.293 11.6797 104.811 11.3189 104.545C10.9581 104.279 10.579 104.218 10.1815 104.366C9.89407 104.471 9.69227 104.65 9.57608 104.91C9.45989 105.17 9.40485 105.454 9.41096 105.769C9.41096 106.085 9.44766 106.524 9.50881 107.08C9.58219 107.779 9.61277 108.354 9.60054 108.805C9.58831 109.256 9.47212 109.677 9.25197 110.072C9.03182 110.468 8.65267 110.765 8.11453 110.956C7.662 111.117 7.21559 111.148 6.76306 111.037C6.31053 110.925 5.8947 110.666 5.50332 110.258C5.11194 109.85 4.78783 109.281 4.53099 108.551C4.35365 108.044 4.24358 107.525 4.19466 106.987C4.15185 106.449 4.18854 105.967 4.30473 105.528L5.41771 105.584C5.31986 106.023 5.28317 106.468 5.30763 106.919C5.33209 107.371 5.41771 107.791 5.55836 108.18C5.80297 108.873 6.11484 109.349 6.48176 109.602C6.85479 109.862 7.24005 109.918 7.63143 109.776C7.91884 109.67 8.12065 109.485 8.23684 109.225C8.34691 108.966 8.40195 108.669 8.40195 108.347C8.40195 108.02 8.37137 107.587 8.3041 107.049C8.23072 106.35 8.20015 105.776 8.21238 105.33C8.22461 104.885 8.3408 104.465 8.55483 104.069C8.76886 103.674 9.14189 103.383 9.67392 103.191C10.1142 103.031 10.5667 103.006 11.0193 103.117C11.4718 103.228 11.8938 103.494 12.2851 103.915C12.6765 104.335 13.0006 104.91 13.2513 105.633C13.4776 106.276 13.5999 106.932 13.6121 107.606H13.6244Z" fill="white"/>
<path d="M0 86.0784L8.93438 85.083L9.07503 86.3751L5.094 86.8203L5.65661 92.0073L9.63764 91.5622L9.77829 92.8543L0.843905 93.8496L0.703254 92.5575L4.54363 92.1309L3.98103 86.9439L0.140651 87.3705L0 86.0784H0Z" fill="white"/>
<path d="M8.7933 72.8418C8.29796 73.5157 7.67421 74.0103 6.92203 74.3256C6.16986 74.6409 5.36264 74.7398 4.50651 74.6224C3.65037 74.4987 2.90431 74.1834 2.26833 73.6703C1.63234 73.1571 1.16758 72.508 0.874049 71.7228C0.580517 70.9377 0.494904 70.0907 0.623324 69.1819C0.745629 68.2792 1.05751 67.4941 1.55284 66.8202C2.04818 66.1463 2.67193 65.6517 3.41799 65.3426C4.16405 65.0273 4.97127 64.9346 5.83963 65.0582C6.708 65.1819 7.45406 65.4972 8.09004 66.0041C8.72603 66.5111 9.18468 67.1602 9.47821 67.9454C9.77174 68.7306 9.85735 69.5714 9.72893 70.474C9.60051 71.3828 9.29475 72.1741 8.79941 72.848L8.7933 72.8418ZM8.39581 68.4647C8.16954 67.8959 7.82097 67.4199 7.34398 67.0428C6.86699 66.6656 6.30439 66.4307 5.65618 66.338C5.00796 66.2452 4.40866 66.3132 3.84606 66.5482C3.28346 66.7769 2.8187 67.1355 2.44567 67.6239C2.07875 68.1123 1.84637 68.6811 1.75465 69.3426C1.66292 70.0041 1.73018 70.6224 1.95033 71.1973C2.17048 71.7723 2.52517 72.2545 3.00216 72.6316C3.47915 73.0088 4.04175 73.2437 4.68997 73.3364C5.33207 73.4292 5.93748 73.3612 6.50008 73.1262C7.06268 72.8975 7.53356 72.5327 7.90047 72.0381C8.2735 71.5435 8.49977 70.9686 8.5915 70.3071C8.68322 69.6455 8.61596 69.0335 8.38969 68.4647H8.39581Z" fill="white"/>
<path d="M9.59588 41.1014L16.6101 47.5434L16.0658 48.7923L8.50736 48.1369L14.0906 53.3301L13.5341 54.6037L4.09827 53.7196L4.63029 52.4955L12.2988 53.225L6.62998 47.9082L7.10697 46.8139L14.8305 47.5125L9.10666 42.2266L9.59588 41.0952V41.1014Z" fill="white"/>
<path d="M26.8511 32.2484L23.4877 32.0134C23.3532 32.2113 23.237 32.3658 23.1514 32.4709L21.751 34.2144L23.8791 35.9516L23.0719 36.9593L16.0883 31.2406L18.2959 28.4833C19.0297 27.5683 19.8186 27.0242 20.6747 26.8573C21.5247 26.6842 22.3319 26.913 23.0902 27.5312C23.6284 27.9701 23.983 28.4833 24.142 29.0644C24.3072 29.6456 24.2766 30.2514 24.0503 30.8944L27.7378 31.1417L26.8572 32.2422L26.8511 32.2484ZM23.0413 30.0103C23.0413 29.4477 22.7845 28.9655 22.2769 28.5513C21.7693 28.1371 21.2495 27.9887 20.7114 28.1062C20.1732 28.2236 19.6473 28.6008 19.1337 29.2375L17.7577 30.9501L20.901 33.5219L22.2769 31.8094C22.7906 31.1726 23.0413 30.5729 23.0413 30.0103Z" fill="white"/>
<path d="M39.2047 19.4197L39.8896 20.31L34.7467 24.3656L29.2185 17.2002L34.2208 13.2559L34.9057 14.1461L30.9185 17.293L32.6186 19.4939L36.1715 16.6933L36.8442 17.565L33.2913 20.3656L35.0769 22.6778L39.2108 19.4197H39.2047Z" fill="white"/>
<path d="M53.7713 11.3332L54.2483 12.3533L48.3409 15.1477L44.5311 6.91898L50.2733 4.19873L50.7442 5.21882L46.1639 7.38884L47.3319 9.91743L51.4169 7.98235L51.8817 8.98389L47.8028 10.919L49.032 13.5774L53.7774 11.3332H53.7713Z" fill="white"/>
<path d="M61.7153 0.371957L62.9689 0.09375L64.6751 7.865L69.4266 6.80163L69.6712 7.9021L63.666 9.24986L61.7214 0.37814L61.7153 0.371957Z" fill="white"/>
</svg>
