<svg width="16" height="16" viewBox="0 0 16 16" fill="none" xmlns="http://www.w3.org/2000/svg">
<path d="M15.9552 4.70136C15.9168 3.84948 15.7791 3.26661 15.5839 2.75741C15.3791 2.23219 15.107 1.78383 14.6621 1.34187C14.2172 0.89992 13.7723 0.621297 13.2474 0.419536C12.7385 0.220977 12.156 0.0864692 11.3046 0.0480384C10.4501 0.00960768 10.178 0 8.00798 0C5.83475 0 5.56269 0.00960768 4.71132 0.0480384C3.85995 0.0864692 3.27744 0.224179 2.76853 0.419536C2.24043 0.6245 1.79234 0.896717 1.35065 1.34187C0.908962 1.78703 0.630507 2.23219 0.428866 2.75741C0.233627 3.26661 0.0959998 3.84948 0.0575921 4.70136C0.0191844 5.55645 0.00958252 5.82866 0.00958252 8C0.00958252 10.1745 0.0191844 10.4468 0.0575921 11.2986C0.0959998 12.1505 0.233627 12.7334 0.428866 13.2426C0.633707 13.7678 0.905762 14.2162 1.35065 14.6581C1.79234 15.1033 2.24043 15.3787 2.76533 15.5805C3.27424 15.779 3.85675 15.9135 4.70812 15.952C5.56269 15.9904 5.83475 16 8.00478 16C10.178 16 10.4501 15.9904 11.3014 15.952C12.1528 15.9135 12.7353 15.7758 13.2442 15.5805C13.7691 15.3755 14.2172 15.1033 14.6589 14.6581C15.1006 14.213 15.3791 13.7678 15.5807 13.2426C15.7791 12.7334 15.9136 12.1505 15.952 11.2986C15.9904 10.4436 16 10.1713 16 8C16 5.82866 15.9936 5.55324 15.9552 4.70136ZM14.5181 11.2346C14.4829 12.016 14.3517 12.442 14.2428 12.7206C14.0988 13.0921 13.9228 13.3611 13.6411 13.6429C13.3595 13.9247 13.0938 14.0945 12.7193 14.245C12.4377 14.3539 12.012 14.4852 11.2342 14.5204C10.3925 14.5588 10.1396 14.5685 8.00158 14.5685C5.86355 14.5685 5.6107 14.5588 4.76893 14.5204C3.98798 14.4852 3.56229 14.3539 3.28384 14.245C2.91256 14.1009 2.64371 13.9247 2.36205 13.6429C2.0804 13.3611 1.91076 13.0953 1.76033 12.7206C1.65151 12.4388 1.52028 12.0128 1.48508 11.2346C1.44667 10.3923 1.43707 10.1393 1.43707 8C1.43707 5.86069 1.44667 5.60769 1.48508 4.76541C1.52028 3.98399 1.65151 3.55805 1.76033 3.27942C1.90436 2.90793 2.0804 2.63891 2.36205 2.35709C2.64371 2.07526 2.90936 1.90552 3.28384 1.755C3.56549 1.64612 3.99118 1.51481 4.76893 1.47958C5.6107 1.44115 5.86355 1.43155 8.00158 1.43155C10.1396 1.43155 10.3925 1.44115 11.2342 1.47958C12.0152 1.51481 12.4409 1.64612 12.7193 1.755C13.0906 1.89912 13.3595 2.07526 13.6411 2.35709C13.9228 2.63891 14.0924 2.90472 14.2428 3.27942C14.3517 3.56125 14.4829 3.98719 14.5181 4.76541C14.5565 5.60769 14.5661 5.86069 14.5661 8C14.5661 10.1393 14.5533 10.3923 14.5181 11.2346Z" fill="white"/>
<path d="M8.00159 3.8877C5.72913 3.8877 3.89197 5.72917 3.89197 7.99979C3.89197 10.2736 5.73234 12.1119 8.00159 12.1119C10.2708 12.1119 12.1112 10.2672 12.1112 7.99979C12.1112 5.72597 10.274 3.8877 8.00159 3.8877ZM8.00159 10.6675C6.52929 10.6675 5.33546 9.47296 5.33546 7.99979C5.33546 6.52661 6.52929 5.33205 8.00159 5.33205C9.47388 5.33205 10.6677 6.52661 10.6677 7.99979C10.6677 9.47296 9.47388 10.6675 8.00159 10.6675Z" fill="white"/>
<path d="M12.2712 4.68814C12.8015 4.68814 13.2314 4.25799 13.2314 3.72737C13.2314 3.19675 12.8015 2.7666 12.2712 2.7666C11.7409 2.7666 11.311 3.19675 11.311 3.72737C11.311 4.25799 11.7409 4.68814 12.2712 4.68814Z" fill="white"/>
<path d="M0 8C0 10.1745 0.00960192 10.4468 0.0480096 11.2986C0.0864173 12.1505 0.224045 12.7334 0.419284 13.2426C0.624125 13.7678 0.896179 14.2162 1.34107 14.6581C1.78276 15.1001 2.23085 15.3787 2.75575 15.5805C3.26465 15.779 3.84717 15.9135 4.69854 15.952C5.55311 15.9904 5.82517 16 7.9952 16C10.1684 16 10.4405 15.9904 11.2919 15.952C12.1432 15.9135 12.7257 15.7758 13.2346 15.5805C13.7596 15.3755 14.2076 15.1033 14.6493 14.6581C15.091 14.2162 15.3695 13.7678 15.5711 13.2426C15.7696 12.7334 15.904 12.1505 15.9424 11.2986C15.9808 10.4436 15.9904 10.1713 15.9904 8C15.9904 5.82546 15.9808 5.55324 15.9424 4.70136C15.904 3.84948 15.7664 3.26661 15.5711 2.75741C15.3663 2.23219 15.0942 1.78383 14.6493 1.34187C14.2108 0.896717 13.7628 0.621297 13.2378 0.419536C12.7289 0.220977 12.1464 0.0864692 11.2951 0.0480384C10.4405 0.00960768 10.1684 0 7.9984 0C5.82516 0 5.55311 0.00960768 4.70174 0.0480384C3.85037 0.0864692 3.26785 0.224179 2.75895 0.419536C2.23405 0.6245 1.78596 0.896717 1.34427 1.34187C0.90258 1.78703 0.624125 2.23219 0.422484 2.75741C0.224045 3.26661 0.0864173 3.84948 0.0480096 4.70136C0.00960192 5.55324 0 5.82546 0 8ZM1.44349 8C1.44349 5.86389 1.45309 5.60769 1.4915 4.76541C1.52671 3.98399 1.65793 3.55805 1.76675 3.27942C1.91078 2.90793 2.08682 2.63891 2.36847 2.35709C2.65013 2.07526 2.91578 1.90552 3.29026 1.755C3.57191 1.64612 3.9976 1.51481 4.77535 1.47958C5.61712 1.44115 5.86997 1.43155 8.008 1.43155C10.146 1.43155 10.3989 1.44115 11.2406 1.47958C12.0216 1.51481 12.4473 1.64612 12.7257 1.755C13.097 1.89912 13.3659 2.07526 13.6475 2.35709C13.9292 2.63891 14.0988 2.90472 14.2493 3.27942C14.3581 3.56125 14.4893 3.98719 14.5245 4.76541C14.5629 5.60769 14.5725 5.86069 14.5725 8C14.5725 10.1393 14.5629 10.3923 14.5245 11.2346C14.4893 12.016 14.3581 12.442 14.2493 12.7206C14.1052 13.0921 13.9292 13.3611 13.6475 13.6429C13.3659 13.9247 13.1002 14.0945 12.7257 14.245C12.4441 14.3539 12.0184 14.4852 11.2406 14.5204C10.3989 14.5588 10.146 14.5685 8.008 14.5685C5.86997 14.5685 5.61712 14.5588 4.77535 14.5204C3.9944 14.4852 3.56871 14.3539 3.29026 14.245C2.91898 14.1009 2.65013 13.9247 2.36847 13.6429C2.08682 13.3611 1.91718 13.0953 1.76675 12.7206C1.65793 12.4388 1.52671 12.0128 1.4915 11.2346C1.44989 10.3923 1.44349 10.1361 1.44349 8Z" fill="white"/>
</svg>
