<svg width="16" height="15" viewBox="0 0 16 15" fill="none" xmlns="http://www.w3.org/2000/svg">
<path d="M0 1.68258C0 1.19487 0.180185 0.792512 0.540541 0.475513C0.900896 0.158499 1.36937 0 1.94595 0C2.51223 0 2.97039 0.156056 3.32046 0.468197C3.68082 0.790083 3.861 1.2095 3.861 1.72648C3.861 2.19468 3.68598 2.58483 3.33591 2.89697C2.97555 3.21886 2.50193 3.3798 1.91506 3.3798H1.89961C1.33333 3.3798 0.875166 3.21886 0.525097 2.89697C0.175027 2.57509 0 2.17029 0 1.68258ZM0.200772 14.4849V4.71124H3.62934V14.4849H0.200772ZM5.52896 14.4849H8.95753V9.02743C8.95753 8.68603 8.99872 8.42267 9.08108 8.23735C9.22522 7.9057 9.44401 7.62527 9.73745 7.39606C10.0309 7.16683 10.399 7.05223 10.8417 7.05223C11.9949 7.05223 12.5714 7.78866 12.5714 9.26153V14.4849H16V8.88112C16 7.43751 15.6396 6.34261 14.9189 5.59642C14.1982 4.85023 13.2458 4.47714 12.0618 4.47714C10.7336 4.47714 9.69884 5.01849 8.95753 6.1012V6.13046H8.94209L8.95753 6.1012V4.71124H5.52896C5.54954 5.02336 5.55985 5.99389 5.55985 7.62284C5.55985 9.25177 5.54954 11.5391 5.52896 14.4849Z" fill="white"/>
</svg>
