<svg width="20" height="16" viewBox="0 0 20 16" fill="none" xmlns="http://www.w3.org/2000/svg">
<path fill-rule="evenodd" clip-rule="evenodd" d="M18.068 2.49218L19.6 1.10372V0.799805H14.2928L10.5104 9.71871L6.20719 0.799805H0.642394V1.10372L2.43199 3.14473C2.60639 3.29555 2.69759 3.5161 2.67439 3.73816V11.759C2.72959 12.0477 2.63039 12.3448 2.41599 12.5548L0.399994 14.8694V15.1695H6.11599V14.8656L4.09999 12.5548C3.88159 12.3441 3.77839 12.0523 3.82239 11.759V4.82119L8.83999 15.1733H9.42319L13.7376 4.82119V13.0678C13.7376 13.2854 13.7376 13.3301 13.5872 13.4726L12.0352 14.8951V15.1998H19.5648V14.8959L18.0688 13.5082C17.9376 13.4142 17.8696 13.2566 17.8976 13.1035V2.8969C17.8696 2.74305 17.9368 2.5854 18.068 2.49218Z" fill="white"/>
</svg>
