<svg width="22" height="22" viewBox="0 0 22 22" fill="none" xmlns="http://www.w3.org/2000/svg">
<path d="M20.3333 9.66683H12.3333V1.66683C12.3333 1.31321 12.1929 0.974069 11.9428 0.724021C11.6928 0.473972 11.3536 0.333496 11 0.333496C10.6464 0.333496 10.3072 0.473972 10.0572 0.724021C9.80715 0.974069 9.66668 1.31321 9.66668 1.66683V9.66683H1.66668C1.31305 9.66683 0.973917 9.8073 0.723868 10.0574C0.47382 10.3074 0.333344 10.6465 0.333344 11.0002C0.333344 11.3538 0.47382 11.6929 0.723868 11.943C0.973917 12.193 1.31305 12.3335 1.66668 12.3335H9.66668V20.3335C9.66668 20.6871 9.80715 21.0263 10.0572 21.2763C10.3072 21.5264 10.6464 21.6668 11 21.6668C11.3536 21.6668 11.6928 21.5264 11.9428 21.2763C12.1929 21.0263 12.3333 20.6871 12.3333 20.3335V12.3335H20.3333C20.687 12.3335 21.0261 12.193 21.2762 11.943C21.5262 11.6929 21.6667 11.3538 21.6667 11.0002C21.6667 10.6465 21.5262 10.3074 21.2762 10.0574C21.0261 9.8073 20.687 9.66683 20.3333 9.66683Z" fill="white"/>
</svg>
