<svg width="72" height="72" viewBox="0 0 72 72" fill="none" xmlns="http://www.w3.org/2000/svg">
<path d="M19.8294 54.2998C17.9782 54.2998 16.1996 53.9699 14.4936 53.3102C12.824 52.6158 11.3539 51.6437 10.0835 50.3938C8.84936 49.1438 7.85118 47.6509 7.08893 45.9149C6.36298 44.1442 6 42.1825 6 40.0298C6 37.2175 6.39927 34.683 7.19782 32.4262C7.99637 30.1346 9.0853 28.0862 10.4646 26.2807C11.8802 24.4406 13.5499 22.8434 15.4737 21.4894C16.9918 20.4208 18.6117 19.4712 20.3333 18.6404C21.1792 18.2322 22.1826 18.4026 22.8809 19.0307C24.1072 20.1336 23.8743 22.1102 22.5501 23.0935C21.4298 23.9254 20.4866 24.7968 19.7205 25.7078C18.7453 26.8998 17.9925 28.2561 17.462 29.7768C17.213 30.4907 17.8873 31.1535 18.6316 31.02C19.2123 30.9158 19.9201 30.8638 20.755 30.8638C22.6425 30.8638 24.3485 31.1242 25.873 31.645C27.4338 32.1658 28.7586 32.9296 29.8476 33.9365C30.9728 34.9086 31.8258 36.1238 32.4065 37.5821C33.0236 39.0403 33.3321 40.7069 33.3321 42.5818C33.3321 44.2136 33.0236 45.7413 32.4065 47.1648C31.8258 48.5883 30.9546 49.8382 29.7931 50.9146C28.6679 51.9562 27.2523 52.7894 25.5463 53.4144C23.8766 54.0047 21.971 54.2998 19.8294 54.2998Z" fill="white"/>
<path d="M53.9973 54.2998C52.1461 54.2998 50.3675 53.9699 48.6615 53.3102C46.9918 52.6158 45.5218 51.6437 44.2514 50.3938C43.0172 49.1438 42.0191 47.6509 41.2568 45.9149C40.5308 44.1442 40.1679 42.1825 40.1679 40.0298C40.1679 37.2175 40.5672 34.683 41.3657 32.4262C42.1642 30.1346 43.2532 28.0862 44.6325 26.2807C46.0481 24.4406 47.7178 22.8434 49.6416 21.4894C51.1597 20.4208 52.7796 19.4712 54.5011 18.6404C55.347 18.2322 56.3505 18.4026 57.0488 19.0307C58.2751 20.1336 58.0422 22.1102 56.718 23.0934C55.5976 23.9254 54.6544 24.7968 53.8884 25.7078C52.9132 26.8998 52.1604 28.2561 51.6299 29.7768C51.3809 30.4907 52.0552 31.1535 52.7995 31.02C53.3802 30.9158 54.088 30.8638 54.9229 30.8638C56.8103 30.8638 58.5163 31.1242 60.0408 31.645C61.6016 32.1658 62.9265 32.9296 64.0154 33.9365C65.1407 34.9086 65.9936 36.1238 66.5744 37.5821C67.1915 39.0403 67.5 40.7069 67.5 42.5818C67.5 44.2136 67.1915 45.7413 66.5744 47.1648C65.9936 48.5883 65.1225 49.8382 63.961 50.9146C62.8358 51.9562 61.4201 52.7894 59.7142 53.4144C58.0445 54.0047 56.1388 54.2998 53.9973 54.2998Z" fill="white"/>
</svg>
