<svg width="50" height="50" viewBox="0 0 50 50" fill="none" xmlns="http://www.w3.org/2000/svg">
<rect x="4" y="13" width="41" height="32" rx="8" fill="url(#paint0_linear_1002_1613)"/>
<g filter="url(#filter0_b_1002_1613)">
<path d="M36.0782 6H22.8491C17.3976 6 13 10.3294 13 15.6964V22.8166C13 28.1836 17.3976 32.513 22.8491 32.513C23.0296 32.513 23.1968 32.6075 23.2901 32.762L26.7015 38.4167C27.9736 40.5278 31.0628 40.5278 32.2985 38.4167L35.7099 32.762C35.8032 32.6075 35.9704 32.513 36.1509 32.513C41.6024 32.513 46 28.1836 46 22.8166V15.6964C45.9637 10.3294 41.5297 6 36.0782 6ZM37.0231 18.1294L34.0793 20.9561C33.9339 21.0992 33.8612 21.2781 33.8976 21.4928L34.5881 25.4286C34.6971 26.1084 33.9703 26.6451 33.3161 26.3231L29.6817 24.4267C29.5 24.3194 29.2819 24.3194 29.1002 24.4267L25.5385 26.2873C24.9207 26.6093 24.1575 26.0726 24.2665 25.3928L24.957 21.3854C24.9934 21.2065 24.9207 20.9918 24.7753 20.8487L21.8678 18.0579C21.359 17.557 21.6498 16.6982 22.3403 16.5909L26.4108 16.0184C26.6289 15.9826 26.7742 15.8753 26.8833 15.6964L28.6641 12.1184C28.9912 11.4743 29.8998 11.4743 30.2269 12.1184L32.0441 15.768C32.1167 15.9469 32.2985 16.0542 32.5165 16.09L36.5143 16.6625C37.2775 16.8056 37.5319 17.6643 37.0231 18.1294Z" fill="white" fill-opacity="0.5"/>
<path d="M46.5 15.6964L46.5 15.693C46.4617 10.0435 41.7968 5.5 36.0782 5.5H22.8491C17.1288 5.5 12.5 10.0459 12.5 15.6964V22.8166C12.5 28.4671 17.1288 33.013 22.8491 33.013C22.8544 33.013 22.8592 33.0158 22.8619 33.0203L26.2733 38.6748C26.2733 38.6749 26.2734 38.6749 26.2734 38.675C27.7365 41.1027 31.2955 41.1149 32.7282 38.6724C32.7288 38.6714 32.7294 38.6703 32.73 38.6693L36.1381 33.0203C36.1408 33.0158 36.1456 33.013 36.1509 33.013C41.8712 33.013 46.5 28.4671 46.5 22.8166L46.5 15.6964ZM36.6858 17.7604L36.6857 17.7603L36.6768 17.7688L33.733 20.5954L33.733 20.5954L33.7285 20.5998C33.4826 20.8418 33.3375 21.1798 33.4046 21.5762L33.4051 21.5792L34.0948 25.5105C34.1335 25.7664 33.848 26.0238 33.5413 25.8766L29.9229 23.9886C29.5911 23.7987 29.1906 23.7988 28.8589 23.9887L25.3074 25.8439C25.1867 25.9068 25.0409 25.8935 24.9176 25.8067C24.7952 25.7207 24.7412 25.5961 24.7599 25.4742L25.4488 21.4763C25.5192 21.1126 25.3733 20.7358 25.1261 20.4924L25.1261 20.4924L25.1216 20.488L22.2168 17.6998C22.0097 17.4932 22.1248 17.1326 22.4143 17.0854L26.4804 16.5135L26.4804 16.5137L26.4917 16.5118C26.8638 16.4508 27.1309 16.2509 27.3102 15.9566L27.3213 15.9383L27.3309 15.9192L29.1099 12.3448C29.1101 12.3443 29.1104 12.3438 29.1107 12.3433C29.2529 12.066 29.6382 12.066 29.7803 12.3434C29.7806 12.3438 29.7808 12.3443 29.7811 12.3448L31.5895 15.9768C31.7567 16.3627 32.1269 16.5327 32.4356 16.5834L32.4355 16.5835L32.4456 16.5849L36.4312 17.1557C36.628 17.1955 36.7328 17.3157 36.7707 17.4311C36.8097 17.55 36.7837 17.6709 36.6858 17.7604Z" stroke="url(#paint1_linear_1002_1613)" stroke-opacity="0.5"/>
</g>
<defs>
<filter id="filter0_b_1002_1613" x="-8" y="-15" width="75" height="76" filterUnits="userSpaceOnUse" color-interpolation-filters="sRGB">
<feFlood flood-opacity="0" result="BackgroundImageFix"/>
<feGaussianBlur in="BackgroundImageFix" stdDeviation="10"/>
<feComposite in2="SourceAlpha" operator="in" result="effect1_backgroundBlur_1002_1613"/>
<feBlend mode="normal" in="SourceGraphic" in2="effect1_backgroundBlur_1002_1613" result="shape"/>
</filter>
<linearGradient id="paint0_linear_1002_1613" x1="5.91872" y1="20.4667" x2="41.9431" y2="42.6255" gradientUnits="userSpaceOnUse">
<stop stop-color="#7C46FF"/>
<stop offset="1" stop-color="#2137FC"/>
</linearGradient>
<linearGradient id="paint1_linear_1002_1613" x1="13" y1="6" x2="58.6542" y2="57.3516" gradientUnits="userSpaceOnUse">
<stop stop-opacity="0"/>
<stop offset="1" stop-color="white"/>
</linearGradient>
</defs>
</svg>
