<svg width="164" height="164" viewBox="0 0 164 164" fill="none" xmlns="http://www.w3.org/2000/svg">
<g clip-path="url(#clip0_194_504)">
<path d="M103.105 12.2499C101.867 11.8754 100.941 11.1356 100.335 10.0122C99.7391 8.88874 99.6199 7.71963 99.9959 6.47746C100.372 5.24442 101.115 4.33106 102.234 3.73737C103.362 3.12542 104.545 3.01582 105.784 3.39029C107.022 3.76477 107.948 4.5046 108.544 5.63717C109.141 6.75147 109.26 7.92057 108.884 9.15361C108.508 10.3866 107.765 11.3 106.637 11.912C105.518 12.5148 104.334 12.6244 103.087 12.2499H103.105ZM103.362 11.4187C104.38 11.7202 105.334 11.638 106.233 11.1447C107.132 10.6515 107.737 9.90257 108.04 8.89787C108.343 7.89317 108.26 6.94327 107.783 6.03904C107.306 5.13482 106.563 4.52286 105.545 4.22145C104.527 3.91091 103.573 4.01138 102.674 4.5046C101.775 4.99781 101.179 5.73764 100.867 6.74233C100.565 7.74703 100.647 8.70606 101.124 9.61029C101.601 10.5145 102.344 11.1082 103.362 11.4187Z" fill="white"/>
<path d="M117.075 7.80176L117.873 8.2219L115.121 13.4555C114.452 14.725 114.828 15.9307 116.194 16.6431C117.561 17.3555 118.772 16.981 119.441 15.7115L122.193 10.4779L122.991 10.8981L120.239 16.1316C119.79 16.9902 119.148 17.5382 118.331 17.7665C117.515 17.9949 116.662 17.8761 115.791 17.4195C114.91 16.9628 114.332 16.3234 114.057 15.5288C113.782 14.7342 113.874 13.903 114.323 13.0353L117.075 7.80176Z" fill="white"/>
<path d="M128.54 25.6216L129.063 21.5023L127.063 19.977L124.871 22.8175L124.156 22.2695L129.632 15.1636L132.484 17.3465C133.071 17.7941 133.411 18.3969 133.511 19.1276C133.612 19.8583 133.438 20.525 132.989 21.1096C132.622 21.5845 132.145 21.9133 131.558 22.0595C130.98 22.2147 130.43 22.1782 129.879 21.9681L129.356 26.2335L128.54 25.6124V25.6216ZM129.833 16.3875L127.577 19.3102L129.714 20.9452C130.109 21.2466 130.558 21.3653 131.053 21.2922C131.558 21.21 131.961 20.9726 132.273 20.5798C132.585 20.1779 132.713 19.7213 132.658 19.228C132.603 18.7348 132.374 18.3329 131.98 18.0315L129.843 16.3966L129.833 16.3875Z" fill="white"/>
<path d="M140.097 34.2619L140.923 34.609C140.226 35.5315 140.235 36.6275 141.06 37.7235C141.867 38.783 142.849 39.0205 143.628 38.436C144.005 38.1528 144.188 37.8149 144.17 37.3856C144.16 36.9654 144.014 36.3718 143.748 35.5954C143.427 34.6638 143.252 34.0244 143.234 33.6773C143.152 32.8918 143.418 32.2616 144.041 31.7867C144.647 31.33 145.289 31.1839 145.958 31.3391C146.637 31.4853 147.206 31.878 147.673 32.4991C148.517 33.6134 148.508 34.9469 147.912 36.0247L147.114 35.6776C147.655 34.7551 147.618 33.8783 146.976 33.0289C146.307 32.1429 145.399 31.8963 144.61 32.4808C144.252 32.7457 144.078 33.0745 144.087 33.449C144.096 33.8235 144.225 34.3715 144.463 35.0748L144.683 35.7689C144.738 35.9059 144.803 36.116 144.867 36.3992C144.949 36.6732 144.995 36.8924 145.004 37.0476C145.032 37.3399 145.059 37.8879 144.922 38.1893C144.803 38.4816 144.564 38.8561 144.188 39.1392C143.583 39.5959 142.922 39.7421 142.216 39.5777C141.528 39.4041 140.895 38.9657 140.354 38.235C139.363 36.9289 139.281 35.4584 140.097 34.2619Z" fill="white"/>
<path d="M146.619 45.9987L148.664 49.8439L147.912 50.2367L145.445 45.6059L153.388 41.4136L155.828 45.9895L155.075 46.3823L153.058 42.5918L150.242 44.0806L152.104 47.5879L151.352 47.9806L149.49 44.4733L146.609 45.9987H146.619Z" fill="white"/>
<path d="M152.049 60.932L154.782 57.7992L153.975 55.4245L150.572 56.5662L150.288 55.7167L158.799 52.8579L159.946 56.2465C160.184 56.9498 160.129 57.6257 159.799 58.2924C159.469 58.9592 158.955 59.4067 158.249 59.6442C157.68 59.836 157.093 59.8451 156.525 59.6442C155.956 59.4524 155.516 59.1144 155.186 58.6395L152.37 61.8911L152.039 60.9229L152.049 60.932ZM158.286 53.9813L154.782 55.1596L155.644 57.6987C155.8 58.1737 156.112 58.5116 156.561 58.7217C157.02 58.9318 157.497 58.9592 157.974 58.8039C158.46 58.6395 158.818 58.329 159.047 57.8905C159.276 57.4521 159.313 56.9954 159.148 56.5205L158.286 53.9722V53.9813Z" fill="white"/>
<path d="M154.039 69.7003L162.395 65.0239L162.551 65.983L155.295 69.9652L163.431 71.4905L163.587 72.4496L154.186 70.6046L154.039 69.6912V69.7003Z" fill="white"/>
<path d="M163.982 79.3271L164 80.2222L155.02 80.4232L155.002 79.5281L163.982 79.3271Z" fill="white"/>
<path d="M156.029 87.8945C157.029 87.1272 158.185 86.8167 159.469 86.972C160.753 87.1272 161.799 87.7118 162.578 88.6891C163.367 89.6755 163.67 90.8446 163.505 92.1873C163.303 93.8222 162.266 95.1831 160.836 95.7676L160.478 94.9273C161.634 94.4981 162.477 93.402 162.642 92.0868C162.78 90.9816 162.532 90.0226 161.89 89.2371C161.248 88.4516 160.414 87.9858 159.359 87.8579C158.304 87.7301 157.378 87.9767 156.561 88.5886C155.745 89.2006 155.277 90.0683 155.14 91.1734C154.974 92.4978 155.534 93.7582 156.543 94.4524L156.002 95.1831C154.754 94.2971 154.066 92.7079 154.268 91.0638C154.433 89.7212 155.02 88.6526 156.02 87.8853L156.029 87.8945Z" fill="white"/>
<path d="M153.113 101.759L151.838 105.915L151.031 105.669L152.562 100.654L161.166 103.257L159.652 108.217L158.845 107.97L160.102 103.869L157.057 102.947L155.901 106.737L155.094 106.491L156.25 102.7L153.131 101.75L153.113 101.759Z" fill="white"/>
<path d="M138.327 127.744C139.152 126.749 140.198 126.183 141.464 126.055C142.739 125.945 143.867 126.283 144.867 127.105C145.866 127.927 146.426 128.959 146.545 130.22C146.683 131.489 146.325 132.622 145.499 133.617C144.674 134.613 143.628 135.179 142.353 135.298C141.088 135.417 139.959 135.079 138.96 134.257C137.96 133.435 137.4 132.403 137.263 131.133C137.144 129.873 137.492 128.74 138.318 127.744H138.327ZM139.006 128.292C138.327 129.114 138.042 130.019 138.152 131.042C138.263 132.056 138.73 132.905 139.537 133.572C140.354 134.238 141.262 134.522 142.289 134.43C143.307 134.339 144.16 133.891 144.839 133.078C145.518 132.256 145.793 131.343 145.683 130.32C145.573 129.306 145.114 128.466 144.307 127.799C143.491 127.133 142.574 126.84 141.546 126.932C140.519 127.023 139.684 127.48 139.006 128.292Z" fill="white"/>
<path d="M137.107 142.276L136.419 142.852L132.622 138.321C131.704 137.225 130.439 137.106 129.255 138.093C128.072 139.079 127.962 140.34 128.879 141.436L132.677 145.966L131.989 146.541L128.191 142.011C127.568 141.262 127.302 140.468 127.403 139.636C127.504 138.805 127.935 138.056 128.696 137.426C129.457 136.796 130.264 136.504 131.108 136.549C131.952 136.595 132.686 136.997 133.319 137.746L137.116 142.276H137.107Z" fill="white"/>
<path d="M116.185 146.03L119.808 148.085L121.991 146.834L120.193 143.728L120.973 143.281L125.467 151.035L122.349 152.825C121.707 153.2 121.028 153.282 120.303 153.09C119.588 152.898 119.038 152.487 118.662 151.848C118.359 151.327 118.24 150.761 118.322 150.168C118.396 149.583 118.643 149.081 119.047 148.66L115.286 146.551L116.176 146.039L116.185 146.03ZM124.266 150.752L122.413 147.564L120.074 148.907C119.643 149.154 119.359 149.519 119.239 150.003C119.129 150.496 119.184 150.962 119.441 151.391C119.698 151.839 120.074 152.122 120.551 152.259C121.028 152.396 121.487 152.341 121.927 152.095L124.266 150.752Z" fill="white"/>
<path d="M103.729 153.328L103.096 153.949C102.509 152.953 101.491 152.533 100.161 152.871C98.8677 153.2 98.2624 154.013 98.51 154.954C98.6293 155.41 98.8769 155.703 99.2713 155.858C99.6657 156.004 100.271 156.105 101.097 156.159C102.078 156.223 102.738 156.305 103.069 156.424C103.83 156.653 104.316 157.137 104.509 157.895C104.692 158.625 104.582 159.274 104.178 159.822C103.784 160.388 103.197 160.754 102.445 160.954C101.087 161.302 99.8584 160.781 99.0879 159.813L99.7208 159.219C100.363 160.069 101.197 160.379 102.225 160.114C103.307 159.84 103.885 159.1 103.646 158.16C103.536 157.73 103.307 157.438 102.949 157.31C102.601 157.173 102.041 157.082 101.298 157.027L100.565 156.963C100.418 156.963 100.198 156.936 99.9134 156.89C99.629 156.853 99.4089 156.817 99.2622 156.762C98.9778 156.68 98.4642 156.488 98.244 156.242C98.0147 156.022 97.7579 155.648 97.6478 155.209C97.4644 154.479 97.5836 153.812 98.0056 153.227C98.4275 152.661 99.0787 152.25 99.9684 152.031C101.564 151.629 102.959 152.113 103.747 153.328H103.729Z" fill="white"/>
<path d="M90.3558 154.798L86.0082 155.2L85.9348 154.36L91.1813 153.876L92.0068 162.79L86.8245 163.265L86.7511 162.425L91.0346 162.032L90.7411 158.872L86.7787 159.237L86.7053 158.397L90.6677 158.032L90.365 154.798H90.3558Z" fill="white"/>
<path d="M74.4329 154.049L76.2857 157.758L78.7989 157.931L79.0374 154.36L79.9363 154.424L79.3309 163.347L75.7445 163.11C75.0016 163.064 74.3962 162.754 73.9009 162.187C73.4148 161.63 73.1855 160.982 73.2313 160.251C73.268 159.648 73.4882 159.118 73.8917 158.671C74.2861 158.223 74.7631 157.949 75.341 157.821L73.4056 153.985L74.4329 154.058V154.049ZM78.4962 162.443L78.7439 158.771L76.0564 158.589C75.5611 158.552 75.1208 158.707 74.7539 159.036C74.387 159.383 74.1761 159.803 74.1394 160.306C74.1027 160.817 74.2495 161.265 74.5797 161.639C74.9007 162.023 75.3134 162.224 75.8087 162.26L78.4962 162.443Z" fill="white"/>
<path d="M65.4991 152.524L66.6364 162.005L65.6825 161.777L64.7653 153.575L60.2342 160.48L59.2803 160.251L64.591 152.305L65.4899 152.515L65.4991 152.524Z" fill="white"/>
<path d="M52.7771 157.986L51.9424 157.666L55.1985 149.327L56.0332 149.647L52.7771 157.986Z" fill="white"/>
<path d="M47.8699 147.373C48.191 148.587 48.035 149.766 47.393 150.889C46.7509 152.012 45.8154 152.743 44.5954 153.081C43.3755 153.419 42.174 153.255 40.9908 152.579C39.5507 151.757 38.6977 150.286 38.7069 148.743H39.6241C39.5782 149.957 40.257 151.163 41.4218 151.821C42.3941 152.369 43.3755 152.515 44.3478 152.232C45.3292 151.949 46.0722 151.355 46.6042 150.442C47.1362 149.519 47.2554 148.578 47.0078 147.592C46.7601 146.605 46.1364 145.838 45.1641 145.29C44.0084 144.633 42.6142 144.651 41.5869 145.318L41.1192 144.532C42.4216 143.728 44.1644 143.71 45.6044 144.532C46.7876 145.208 47.5489 146.149 47.8699 147.363V147.373Z" fill="white"/>
<path d="M36.1571 139.353L32.7909 136.577L33.3321 135.928L37.3862 139.271L31.6535 146.167L27.6453 142.861L28.1864 142.212L31.4976 144.943L33.5247 142.504L30.4611 139.974L31.0023 139.326L34.0658 141.856L36.1479 139.353H36.1571Z" fill="white"/>
<path d="M27.8287 133.471L26.9848 133.188C27.6086 132.211 27.5168 131.115 26.6088 130.092C25.7282 129.096 24.7285 128.932 23.9947 129.571C23.637 129.882 23.4902 130.238 23.5361 130.658C23.5819 131.078 23.7745 131.663 24.0956 132.412C24.4808 133.316 24.7101 133.937 24.7652 134.284C24.9027 135.061 24.6918 135.709 24.1048 136.23C23.5361 136.732 22.9032 136.924 22.2336 136.823C21.5457 136.723 20.9495 136.385 20.4358 135.8C19.5094 134.759 19.4086 133.426 19.9314 132.311L20.7477 132.594C20.2799 133.553 20.39 134.43 21.0962 135.225C21.8392 136.056 22.7656 136.239 23.4902 135.59C23.8296 135.298 23.9763 134.96 23.9396 134.586C23.903 134.211 23.7287 133.672 23.4352 132.996L23.16 132.32C23.0958 132.193 23.0133 131.983 22.9215 131.708C22.8206 131.444 22.7564 131.224 22.7381 131.069C22.6831 130.777 22.6188 130.238 22.7381 129.927C22.8298 129.626 23.0408 129.233 23.3893 128.923C23.958 128.42 24.6092 128.229 25.3155 128.338C26.0218 128.457 26.673 128.85 27.2784 129.526C28.3699 130.749 28.5625 132.211 27.8379 133.462L27.8287 133.471Z" fill="white"/>
<path d="M13.0339 105.002C13.4466 106.226 13.3824 107.413 12.8137 108.546C12.2359 109.687 11.3462 110.455 10.1171 110.866C8.88802 111.277 7.71397 111.204 6.56744 110.646C5.41173 110.089 4.63209 109.194 4.21934 107.97C3.80659 106.746 3.87079 105.559 4.44864 104.426C5.00815 103.294 5.89786 102.517 7.12694 102.106C8.35603 101.695 9.53007 101.769 10.6858 102.326C11.8231 102.883 12.6028 103.787 13.0155 105.011L13.0339 105.002ZM12.2084 105.276C11.869 104.271 11.2453 103.55 10.3189 103.102C9.39249 102.654 8.4294 102.609 7.42963 102.938C6.42985 103.276 5.70524 103.897 5.24663 104.81C4.78802 105.723 4.71464 106.673 5.05401 107.678C5.39339 108.683 6.03544 109.404 6.95267 109.843C7.87907 110.29 8.83298 110.345 9.82359 110.007C10.8234 109.669 11.5571 109.048 12.0158 108.135C12.4744 107.221 12.5386 106.271 12.19 105.267L12.2084 105.276Z" fill="white"/>
<path d="M1.28403 96.2792L1.16479 95.3932L7.04421 94.5803C8.46591 94.3885 9.23638 93.3747 9.02542 91.8494C8.81446 90.3332 7.79633 89.566 6.37463 89.7578L0.495216 90.5707L0.375977 89.6847L6.2554 88.8718C7.21848 88.7348 8.04399 88.9357 8.69522 89.4655C9.35562 89.9952 9.7592 90.7533 9.88761 91.7306C10.0252 92.7079 9.84175 93.5482 9.35562 94.2332C8.86949 94.9183 8.13571 95.3293 7.16345 95.4663L1.28403 96.2792Z" fill="white"/>
<path d="M9.17236 76.6327L5.50346 78.6055L5.42091 81.1082L9.01644 81.2269L8.98892 82.122L0.00927734 81.8206L0.128517 78.2402C0.156033 77.5004 0.440374 76.8793 0.990709 76.3769C1.53187 75.8746 2.17393 75.6189 2.91688 75.6463C3.52225 75.6645 4.06342 75.8655 4.5312 76.2491C4.98981 76.6236 5.28333 77.0894 5.43008 77.6648L9.20905 75.6006L9.17236 76.6236V76.6327ZM0.880642 80.962L4.57706 81.0899L4.66878 78.4046C4.68713 77.9023 4.52203 77.4821 4.17348 77.1168C3.81576 76.7606 3.38467 76.5688 2.88019 76.5505C2.36655 76.5322 1.92628 76.6966 1.55022 77.0346C1.17415 77.3725 0.981537 77.7835 0.972364 78.2859L0.880642 80.9712V80.962Z" fill="white"/>
<path d="M9.51166 62.2107L9.31904 61.343C10.4839 61.3704 11.3736 60.7311 11.7864 59.425C12.19 58.1554 11.8139 57.2238 10.8783 56.9315C10.4289 56.7853 10.0437 56.8401 9.70428 57.0959C9.36491 57.3516 8.96133 57.8174 8.48437 58.4842C7.90652 59.2788 7.49376 59.7903 7.2186 60.0186C6.6224 60.5393 5.95282 60.6945 5.20987 60.4571C4.48526 60.2287 3.98996 59.7903 3.73314 59.1601C3.46714 58.5207 3.4488 57.8357 3.68728 57.0959C4.1092 55.7624 5.2007 54.9952 6.42978 54.8582L6.60405 55.7076C5.54007 55.7989 4.84298 56.3469 4.52195 57.3608C4.18258 58.4203 4.52195 59.2971 5.43918 59.5985C5.87027 59.7355 6.23716 59.6898 6.53068 59.4615C6.83336 59.2332 7.20942 58.813 7.64052 58.2102L8.08079 57.6256C8.16334 57.5069 8.29175 57.3334 8.48437 57.105C8.65864 56.8767 8.81457 56.7123 8.93381 56.6118C9.15394 56.4109 9.58504 56.0821 9.91524 56.0181C10.2179 55.9451 10.6765 55.9177 11.1168 56.0547C11.8414 56.283 12.3459 56.7305 12.6211 57.3973C12.8871 58.0549 12.8871 58.8221 12.6119 59.6898C12.1166 61.2517 10.9609 62.1742 9.51166 62.2016V62.2107Z" fill="white"/>
<path d="M15.3085 50.1453L17.2622 46.2635L18.0235 46.638L15.6662 51.3235L7.63135 47.3139L9.9611 42.6831L10.7224 43.0576L8.79623 46.8846L11.6396 48.3094L13.419 44.7656L14.1803 45.14L12.4009 48.6839L15.3177 50.1361L15.3085 50.1453Z" fill="white"/>
<path d="M24.3614 37.0568L20.2155 36.664L18.7388 38.7008L21.6556 40.7924L21.1328 41.514L13.8408 36.2713L15.9413 33.3668C16.3815 32.764 16.9686 32.4169 17.7023 32.2982C18.4361 32.1794 19.1057 32.3256 19.7111 32.764C20.1972 33.1111 20.5457 33.586 20.7108 34.1614C20.8851 34.7277 20.8668 35.2849 20.6742 35.8329L24.9668 36.2256L24.3614 37.0568ZM15.0516 36.0429L18.0509 38.1985L19.6285 36.0247C19.922 35.6228 20.0229 35.1753 19.9312 34.682C19.8303 34.1888 19.5827 33.7869 19.1791 33.4947C18.7663 33.1933 18.2985 33.0837 17.8124 33.1567C17.3263 33.2298 16.9227 33.4673 16.6292 33.8691L15.0516 36.0429Z" fill="white"/>
<path d="M30.3786 30.3435L21.7017 26.3064L22.3988 25.6214L29.865 29.1744L26.3703 21.7031L27.0674 21.0181L31.0298 29.695L30.3694 30.3435H30.3786Z" fill="white"/>
<path d="M32.4514 16.6888L33.1669 16.1499L38.5693 23.3015L37.8539 23.8404L32.4606 16.6888H32.4514Z" fill="white"/>
<path d="M44.0912 18.141C42.8804 17.7756 41.9632 17.0267 41.3395 15.885C40.7249 14.7524 40.5874 13.5742 40.9359 12.3594C41.2844 11.1538 42.0641 10.2221 43.2565 9.57366C44.7149 8.78817 46.4209 8.83383 47.7325 9.65586L47.2556 10.4414C46.2375 9.75633 44.8525 9.70153 43.6784 10.3409C42.697 10.8706 42.0549 11.6287 41.7889 12.606C41.5138 13.5833 41.6238 14.5241 42.1375 15.4648C42.6419 16.3965 43.3849 16.9993 44.3572 17.3098C45.3294 17.6112 46.3108 17.4925 47.2923 16.9628C48.4663 16.3234 49.1818 15.1452 49.1542 13.9213L50.0715 13.9395C50.0715 15.4648 49.1726 16.9445 47.7142 17.73C46.5218 18.3785 45.3111 18.5246 44.1003 18.1593L44.0912 18.141Z" fill="white"/>
<path d="M57.1158 12.4509L61.2525 11.0717L61.5184 11.8755L56.5287 13.5469L53.667 5.06178L58.6017 3.41772L58.8677 4.22148L54.786 5.58239L55.8041 8.58735L59.5831 7.32691L59.8491 8.13067L56.0701 9.39111L57.1066 12.4691L57.1158 12.4509Z" fill="white"/>
<path d="M66.5356 8.51427L67.2236 7.94798C67.7189 8.98922 68.7003 9.49157 70.0578 9.27236C71.3786 9.05315 72.039 8.29506 71.8831 7.33603C71.8097 6.87022 71.5804 6.55967 71.2043 6.377C70.8191 6.19433 70.2229 6.04819 69.4066 5.92032C68.4343 5.77418 67.7831 5.62804 67.462 5.49104C66.7283 5.19876 66.288 4.67815 66.1596 3.90179C66.0403 3.15283 66.2054 2.52261 66.6549 2.002C67.1043 1.47225 67.7097 1.15257 68.4802 1.0247C69.8652 0.796359 71.0484 1.41745 71.7271 2.44954L71.0484 2.98843C70.4797 2.0842 69.6726 1.70972 68.6269 1.88326C67.5262 2.06593 66.8842 2.75095 67.0401 3.70998C67.1135 4.1484 67.3244 4.45894 67.6638 4.62335C68.0032 4.78775 68.5444 4.93389 69.2781 5.04349L70.0028 5.17136C70.1495 5.18963 70.3605 5.22617 70.6448 5.29923C70.9291 5.35404 71.1401 5.40884 71.2869 5.48191C71.562 5.59151 72.0573 5.81985 72.2591 6.08473C72.4701 6.3222 72.6902 6.71495 72.7636 7.17163C72.8828 7.91145 72.7086 8.56907 72.2408 9.10795C71.773 9.6377 71.0851 9.98478 70.1862 10.1309C68.5627 10.3958 67.2144 9.79298 66.5356 8.51427Z" fill="white"/>
</g>
<defs>
<clipPath id="clip0_194_504">
<rect width="164" height="162.368" fill="white" transform="translate(0 0.979004)"/>
</clipPath>
</defs>
</svg>
