<svg width="16" height="15" viewBox="0 0 16 15" fill="none" xmlns="http://www.w3.org/2000/svg">
<path d="M14.3558 3.55226C14.3623 3.70919 14.3623 3.85899 14.3623 4.01592C14.3688 8.77373 11.0674 14.2663 5.03006 14.2663C3.24939 14.2663 1.50122 13.7027 0 12.647C0.259951 12.6827 0.519903 12.697 0.779854 12.697C2.25508 12.697 3.69131 12.1548 4.85459 11.1491C3.45085 11.1205 2.21608 10.1148 1.78716 8.64533C2.28107 8.75233 2.78798 8.73093 3.26889 8.58113C1.74167 8.25301 0.643379 6.77645 0.636881 5.05736C0.636881 5.04309 0.636881 5.02883 0.636881 5.01456C1.0918 5.29275 1.6052 5.44968 2.1251 5.46395C0.688871 4.40824 0.240455 2.30396 1.11129 0.656204C2.78148 2.91028 5.23802 4.27271 7.87652 4.42251C7.61007 3.17421 7.97401 1.86171 8.82535 0.977196C10.1446 -0.385236 12.2242 -0.313904 13.472 1.13413C14.2063 0.977196 14.9147 0.677604 15.5581 0.256748C15.3111 1.09133 14.7977 1.79751 14.1154 2.2469C14.7652 2.1613 15.4021 1.9687 16 1.68338C15.5581 2.41096 14.9992 3.03868 14.3558 3.55226Z" fill="white"/>
</svg>
